<svg width="249" height="87" viewBox="0 0 249 87" fill="none" xmlns="http://www.w3.org/2000/svg">
<path d="M59.016 62.048C52.872 66.528 45.128 68.768 35.784 68.768C25.416 68.768 17 65.792 10.536 59.84C4.072 53.888 0.84 45.792 0.84 35.552C0.84 25.44 4.2 17.344 10.92 11.264C17.704 5.184 26.28 2.144 36.648 2.144C43.944 2.144 50.248 3.488 55.56 6.17599V20.96C49.416 17.44 43.112 15.68 36.648 15.68C30.568 15.68 25.736 17.504 22.152 21.152C18.568 24.736 16.776 29.536 16.776 35.552C16.776 41.632 18.536 46.464 22.056 50.048C25.576 53.632 30.376 55.424 36.456 55.424C39.208 55.424 41.928 55.008 44.616 54.176V41.984H34.152V29.408H59.016V62.048ZM114.701 68H100.685V60.224C98.1253 65.664 93.1973 68.384 85.9013 68.384C80.9093 68.384 77.0053 67.008 74.1893 64.256C71.4373 61.44 70.0613 57.312 70.0613 51.872V19.328H84.0773V48.704C84.0773 54.4 86.5733 57.248 91.5653 57.248C97.6453 57.248 100.685 53.184 100.685 45.056V19.328H114.701V68ZM171.349 63.296C171.349 71.104 169.013 76.96 164.341 80.864C159.669 84.832 153.813 86.816 146.773 86.816C139.925 86.816 133.941 85.6 128.821 83.168V68.864C133.301 72.448 138.805 74.24 145.333 74.24C149.557 74.24 152.629 73.344 154.549 71.552C156.469 69.76 157.429 66.944 157.429 63.104V59.84C154.613 64.192 150.133 66.368 143.989 66.368C138.613 66.368 133.973 64.384 130.069 60.416C126.229 56.448 124.309 50.56 124.309 42.752C124.309 35.84 126.165 30.144 129.877 25.664C133.653 21.12 138.581 18.848 144.661 18.848C150.421 18.848 154.677 21.152 157.429 25.76V19.328H171.349V63.296ZM138.901 42.848C138.901 46.88 139.669 49.952 141.205 52.064C142.741 54.176 144.949 55.232 147.829 55.232C150.837 55.232 153.173 54.112 154.837 51.872C156.565 49.568 157.429 46.816 157.429 43.616C157.429 34.912 154.261 30.56 147.925 30.56C145.109 30.56 142.901 31.648 141.301 33.824C139.701 36 138.901 39.008 138.901 42.848ZM220.593 65.216C217.265 67.392 212.177 68.48 205.329 68.48C197.329 68.48 191.089 66.176 186.609 61.568C182.193 56.896 179.985 50.912 179.985 43.616C179.985 35.872 182.129 29.824 186.417 25.472C190.769 21.056 196.113 18.848 202.449 18.848C208.977 18.848 214.129 20.768 217.905 24.608C221.681 28.384 223.569 34.048 223.569 41.6C223.569 43.072 223.313 45.6 222.801 49.184H194.193C195.153 51.872 196.817 53.952 199.185 55.424C201.553 56.896 204.401 57.632 207.729 57.632C212.657 57.632 216.945 56.256 220.593 53.504V65.216ZM203.025 29.504C200.785 29.504 198.801 30.336 197.073 32C195.345 33.6 194.193 36 193.617 39.2H210.513V38.048C210.065 32.352 207.569 29.504 203.025 29.504ZM248.069 68H234.053V0.127998H248.069V68Z" fill="white"/>
</svg>
