<svg width="18" height="18" viewBox="0 0 18 18" fill="none" xmlns="http://www.w3.org/2000/svg">
<path d="M7.5 13.5C8.83123 13.4997 10.1241 13.0541 11.1727 12.234L14.4697 15.531L15.5302 14.4705L12.2332 11.1735C13.0537 10.1247 13.4997 8.83158 13.5 7.5C13.5 4.19175 10.8082 1.5 7.5 1.5C4.19175 1.5 1.5 4.19175 1.5 7.5C1.5 10.8083 4.19175 13.5 7.5 13.5ZM7.5 3C9.98175 3 12 5.01825 12 7.5C12 9.98175 9.98175 12 7.5 12C5.01825 12 3 9.98175 3 7.5C3 5.01825 5.01825 3 7.5 3Z" fill="white"/>
<path d="M8.55887 6.43956C8.84312 6.72456 8.99987 7.10106 8.99987 7.50006H10.4999C10.5005 7.10589 10.4231 6.71548 10.2719 6.35143C10.1208 5.98737 9.89901 5.65688 9.61937 5.37906C8.48387 4.24506 6.51512 4.24506 5.38037 5.37906L6.43937 6.44106C7.00937 5.87256 7.99187 5.87406 8.55887 6.43956Z" fill="white"/>
</svg>
